# xmcd
#
# Track frame offsets:
#	150
#	16077
#	30015
#	43615
#	57622
#	71745
#	87225
#	98452
#	104252
#	121425
#	136802
#	152227
#	164267
#	178462
#	190792
#
# Disc length: 2692 seconds
#
# Revision: 0
# Processed by: cddbd v1.5.1PL0 Copyright (c) Steve Scherf et al.
# Submitted via: dBpowerAMP V4.0
#
DISCID=bf0a820f
DTITLE=Totte Bergström - Totte Bergström
DYEAR=1995
DGENRE=Country
TTITLE0=Stormy Winds
TTITLE1=Good, Good Woman
TTITLE2=Learning To Fly
TTITLE3=Ballad Of Easy Rider
TTITLE4=It Ain´t The Gold
TTITLE5=Just Another Timethief
TTITLE6=I´ve Just Seen A Face
TTITLE7=Cool Cat Corny
TTITLE8=Reap And Sow
TTITLE9=Can´t Help Falling In Love
TTITLE10=Bluegrass Rock and Roll
TTITLE11=Norwegian Wood
TTITLE12=I See A Free Man
TTITLE13=I´ll Be Your Baby Tonight
TTITLE14=The Time That You´ve Been Given
EXTD=
EXTT0=
EXTT1=
EXTT2=
EXTT3=
EXTT4=
EXTT5=
EXTT6=
EXTT7=
EXTT8=
EXTT9=
EXTT10=
EXTT11=
EXTT12=
EXTT13=
EXTT14=
PLAYORDER=
